<svg xmlns="http://www.w3.org/2000/svg" width="94" height="70.964" viewBox="0 0 94 70.964"><defs><style>.a{fill:#f0bc5e;}.b{fill:#313b3b;}.c{fill:#2f4343;}</style></defs><g transform="translate(-8 -23.302)"><g transform="translate(9.127 40.198)"><path class="a" d="M19.1,245.106H41.863l-1.686-5.059H20.784Zm0,0" transform="translate(-19.098 -240.047)"/><path class="a" d="M203.1,416.047h60.827V424.5H203.1Zm0,0" transform="translate(-171.288 -378.875)"/><path class="a" d="M375.373,250.383v-5.267a5.075,5.075,0,0,0-5.069-5.069H360.167a5.075,5.075,0,0,0-5.069,5.069v8.422C365.134,253.306,367.117,251.06,375.373,250.383Zm0,0" transform="translate(-291.185 -240.047)"/><path class="a" d="M263.373,253.538v-8.422a5.075,5.075,0,0,0-5.069-5.069H248.167a5.075,5.075,0,0,0-5.069,5.069v5.267C251.353,251.06,253.336,253.306,263.373,253.538Zm0,0" transform="translate(-202.84 -240.047)"/></g><path class="b" d="M259.3,205.667a5.063,5.063,0,0,0-3.379-4.758V171.874a5.075,5.075,0,0,0-5.069-5.069h-9.319a18.585,18.585,0,0,0-28.673,0h-9.318a5.075,5.075,0,0,0-5.069,5.069v29.035a5.062,5.062,0,0,0-3.379,4.758v18.586h3.379v1.69a5.074,5.074,0,0,0,5.069,5.069H210.3a5.075,5.075,0,0,0,5.069-5.069v-1.69h23.655v1.69a5.074,5.074,0,0,0,5.069,5.069h6.759a5.075,5.075,0,0,0,5.069-5.069v-1.69H259.3ZM201.856,200.6V188.8a45.208,45.208,0,0,1,11.417,1.614,56.637,56.637,0,0,0,27.855,0,45.3,45.3,0,0,1,11.417-1.614v11.8Zm1.69-30.413h10.983l.507-.676a15.206,15.206,0,0,1,24.33,0l.507.676h10.983a1.693,1.693,0,0,1,1.69,1.69v13.544a48.872,48.872,0,0,0-12.238,1.714,53.24,53.24,0,0,1-26.213,0,48.846,48.846,0,0,0-12.237-1.714V171.874A1.692,1.692,0,0,1,203.546,170.185Zm8.448,55.758a1.692,1.692,0,0,1-1.69,1.69h-6.758a1.692,1.692,0,0,1-1.69-1.69v-1.69h10.138Zm40.551,0a1.692,1.692,0,0,1-1.69,1.69H244.1a1.692,1.692,0,0,1-1.69-1.69v-1.69h10.138Zm3.379-5.069H198.477V205.667a1.692,1.692,0,0,1,1.69-1.69h54.068a1.693,1.693,0,0,1,1.69,1.69Zm0,0" transform="translate(-157.303 -136.745)"/><path class="c" d="M227.1,416.047h50.689v3.379H227.1Zm0,0" transform="translate(-181.092 -338.677)"/><path class="c" d="M29.366,210.1l-6.018-18.052H6.017L0,210.1H10.815v23.21H9.525a3.873,3.873,0,0,0-3.868,3.868v3.868H23.709v-3.868a3.873,3.873,0,0,0-3.868-3.868H18.552V210.1h5.158v7.974a3.868,3.868,0,1,0,2.579,0V210.1ZM25,222.994a1.289,1.289,0,1,1,1.289-1.289A1.291,1.291,0,0,1,25,222.994ZM7.876,194.626H21.491l4.3,12.895H3.577Zm13.255,42.552v1.289H8.236v-1.289a1.292,1.292,0,0,1,1.289-1.289H19.841A1.292,1.292,0,0,1,21.131,237.178Zm-5.158-3.868H13.394V210.1h2.579Zm0,0" transform="translate(8 -161.987)"/></g></svg>