<svg id="baseball" xmlns="http://www.w3.org/2000/svg" width="67" height="67" viewBox="0 0 67 67">
  <g id="Group_56" data-name="Group 56" transform="translate(0 34.581)">
    <path id="Path_140" data-name="Path 140" d="M263.565,267.887l4.323-4.323-5.4-7.565L256,262.484Z" transform="translate(-221.419 -256)" fill="#f0bc5e"/>
    <path id="Path_141" data-name="Path 141" d="M14.048,316.1A14.048,14.048,0,1,1,28.1,302.048,14.065,14.065,0,0,1,14.048,316.1Z" transform="translate(0 -283.677)" fill="#f0bc5e"/>
  </g>
  <path id="Path_142" data-name="Path 142" d="M63.627,52.952a3.4,3.4,0,0,0-2.385.988l-1.148,1.148-.887-.92C51.913,46.613,44.819,38.695,38,30.528l1.669-1.669L38.14,27.332l-1.53,1.53q-4.062-4.913-7.986-9.935l-1.705,1.328q4,5.127,8.157,10.142L30.4,35.068Q18.177,24.943,5.3,15.728A7.48,7.48,0,1,1,15.731,5.294c2.619,3.669,5.405,7.432,8.522,11.509L25.6,18.547l1.71-1.322-1.343-1.74c-3.1-4.055-5.871-7.8-8.478-11.448A9.643,9.643,0,1,0,4.037,17.489Q16.752,26.571,28.866,36.6l-1.535,1.535,1.528,1.528,1.677-1.677q12.206,10.2,23.632,21.215l.919.887-1.149,1.149A3.374,3.374,0,0,0,56.324,67a3.4,3.4,0,0,0,2.385-.988l7.3-7.3a3.373,3.373,0,0,0-2.385-5.758ZM36.464,32.064q2.748,3.287,5.549,6.524l-3.427,3.427q-3.231-2.809-6.515-5.558Zm3.748,11.381,3.231-3.231Q50.4,48.142,57.651,55.669l.493.51-1.962,1.964-.511-.493Q48.133,50.375,40.212,43.445ZM64.484,57.181l-7.3,7.3a1.212,1.212,0,0,1-2.068-.857,1.2,1.2,0,0,1,.354-.857l7.3-7.3a1.212,1.212,0,0,1,2.068.857A1.2,1.2,0,0,1,64.484,57.181Z" transform="translate(0 0)"/>
  <path id="Path_143" data-name="Path 143" d="M40,42.161v2.161A4.327,4.327,0,0,0,44.323,40H42.161A2.163,2.163,0,0,1,40,42.161Z" transform="translate(-34.597 -34.597)"/>
  <path id="Path_144" data-name="Path 144" d="M14.048,288A14.048,14.048,0,1,0,28.1,302.048,14.065,14.065,0,0,0,14.048,288ZM2.161,302.048a11.826,11.826,0,0,1,2.7-7.53,11.859,11.859,0,0,1,1.567,2.467l-.964.351.739,2.032.964-.351a11.955,11.955,0,0,1,.35,1.951H6.484v2.161H7.515a11.842,11.842,0,0,1-.35,1.951l-.964-.351-.739,2.032.964.351a11.872,11.872,0,0,1-1.567,2.467A11.831,11.831,0,0,1,2.161,302.048Zm4.225,9.074a14.013,14.013,0,0,0,2.073-3.271l1.064.388.739-2.032-1.054-.384a14.014,14.014,0,0,0,.467-2.694h1.13v-2.161H9.676a14.083,14.083,0,0,0-.467-2.694l1.054-.384-.739-2.032-1.064.386a13.99,13.99,0,0,0-2.073-3.271,11.84,11.84,0,0,1,15.909.533,13.968,13.968,0,0,0-1.638,2.739l-1.064-.387-.739,2.03,1.054.384a14.007,14.007,0,0,0-.467,2.7H18.31v2.161h1.13a14.107,14.107,0,0,0,.467,2.7l-1.054.384.739,2.031,1.064-.387a14,14,0,0,0,1.638,2.739,11.843,11.843,0,0,1-15.909.531Zm17.354-2.216a11.87,11.87,0,0,1-1.05-1.795l.963-.35-.739-2.032-.963.35a11.957,11.957,0,0,1-.35-1.951h1.031v-2.161H21.6a11.839,11.839,0,0,1,.35-1.951l.963.35.739-2.032-.963-.35a11.822,11.822,0,0,1,1.05-1.795,11.813,11.813,0,0,1,0,13.715Z" transform="translate(0 -249.097)"/>
</svg>
