<svg id="bike" xmlns="http://www.w3.org/2000/svg" width="73.515" height="66.4" viewBox="0 0 73.515 66.4">
  <path id="Path_26" data-name="Path 26" d="M69.143,76.069,53.427,49.874l5.02-2.853L51.393,31.734l10.9-4.542a10.622,10.622,0,0,1,4.1-.821,4.743,4.743,0,1,1,0,9.486H61.657v2.371H66.4A7.114,7.114,0,0,0,66.4,24a12.954,12.954,0,0,0-5.016,1l-13.176,5.49,4.131,8.951-14.348,9.44-22.039-4.64L13,33.18l-2.291.612,4.743,17.786,2.291-.612-1.107-4.154L35.2,50.72,12.8,65.46a9.941,9.941,0,0,0-4.45,7.591A13.411,13.411,0,0,0,3.637,82.1H0v8.3H73.515V82.1H71.063A13.98,13.98,0,0,0,69.143,76.069Zm-1.086,3.273-24.3-4.674L61.537,68l5.574,9.291A11.678,11.678,0,0,1,68.057,79.341ZM36.245,69.327l-.758-1.895-2.2.88.759,1.9a2.381,2.381,0,1,1,2.2-.882Zm-1.859-6.2a4.746,4.746,0,1,0,.6,9.425l1,2.495-1.61.6a8.15,8.15,0,0,1-9-2.264l-4.427-5.061L36.59,59.44l-.019.116,21.981,3.471,1.742,2.9L38.2,74.215l-1.015-2.536a4.729,4.729,0,0,0-2.8-8.55ZM11.515,73.688l7.328-4.163L22.2,73.359,9.045,75.619A10.976,10.976,0,0,1,11.515,73.688ZM56.963,60.377,39.731,57.655l11.633-6.61ZM14.1,67.441,53.344,41.622l2.037,4.414L11.146,71.17A7.592,7.592,0,0,1,14.1,67.441ZM7.12,78.356l16.95-2.912A10.493,10.493,0,0,0,35.2,77.874l1.659-.622.517,1.291h-.62v2.371H41.5V78.543H39.931l-.85-2.125.413-.154,29.182,5.612c.009.075.007.149.015.224H6.008A11.011,11.011,0,0,1,7.12,78.356Zm64.023,9.673H2.371V84.472H71.143Z" transform="translate(0 -24)" fill="#333"/>
  <path id="Path_27" data-name="Path 27" d="M46.646,48.3H35.14A3.144,3.144,0,0,1,32,45.16V43.14A3.144,3.144,0,0,1,35.14,40h1.409a3.173,3.173,0,0,1,.618.062L47.26,42.081a3.14,3.14,0,0,1-.614,6.219Z" transform="translate(-27.257 -37.629)" fill="#f9ba48"/>
</svg>
