<svg id="bookshelf" xmlns="http://www.w3.org/2000/svg" width="67" height="67" viewBox="0 0 67 67">
  <path id="Path_84" data-name="Path 84" d="M160,296v21.613h23.774V296Zm7.564,14.048a1.081,1.081,0,0,1-1.081,1.081h-2.161a1.081,1.081,0,0,1-1.081-1.081v-6.484a1.081,1.081,0,0,1,1.081-1.081h2.161a1.081,1.081,0,0,1,1.081,1.081Zm12.968,0a1.081,1.081,0,0,1-1.081,1.081H177.29a1.081,1.081,0,0,1-1.081-1.081v-6.484a1.081,1.081,0,0,1,1.081-1.081h2.161a1.081,1.081,0,0,1,1.081,1.081Zm0,0" transform="translate(-138.387 -256.016)" fill="#f0bc5e"/>
  <path id="Path_85" data-name="Path 85" d="M56,192H90.581v10.806H56Zm0,0" transform="translate(-48.436 -166.065)" fill="#f0bc5e"/>
  <path id="Path_86" data-name="Path 86" d="M67,21.613V19.452a2.163,2.163,0,0,0-2.161-2.161H54.032V8.645H52.924A5.349,5.349,0,0,0,54.032,5.4a5.41,5.41,0,0,0-5.4-5.4H32.419V10.806h1.109a5.295,5.295,0,0,0,0,6.484H2.161A2.163,2.163,0,0,0,0,19.452v2.161a2.163,2.163,0,0,0,2.161,2.161V60.715A3.238,3.238,0,0,0,0,63.758V67H67V63.758a3.238,3.238,0,0,0-2.161-3.043V23.774A2.163,2.163,0,0,0,67,21.613ZM34.581,2.161H48.629a3.242,3.242,0,1,1,0,6.484H34.581Zm0,11.887a3.246,3.246,0,0,1,3.242-3.242H51.871V17.29H37.823A3.246,3.246,0,0,1,34.581,14.048Zm-32.419,5.4H64.839v2.161H2.161ZM34.581,60.516V41.064H58.355V60.516ZM15.129,23.774V38.9H8.645V23.774Zm32.751,0L53.554,38.9H48.269L43.226,26.8V23.774Zm-4.654,8.645,2.7,6.484h-2.7ZM41.064,38.9H34.581V23.774h6.484Zm-8.645,0H25.935V23.774h6.484Zm-8.645,0H17.29V23.774h6.484ZM8.645,41.064H32.419V60.516H8.645ZM58.355,38.9H55.862L50.188,23.774h8.167ZM6.484,23.774V60.516H4.323V23.774ZM64.839,64.839H2.161V63.758a1.082,1.082,0,0,1,1.081-1.081H63.758a1.082,1.082,0,0,1,1.081,1.081Zm-2.161-4.323H60.516V23.774h2.161Zm0,0" fill="#333"/>
  <path id="Path_87" data-name="Path 87" d="M272,96h2.161v2.161H272Zm0,0" transform="translate(-235.258 -83.032)" fill="#333"/>
  <path id="Path_88" data-name="Path 88" d="M304,96h8.645v2.161H304Zm0,0" transform="translate(-262.936 -83.032)" fill="#333"/>
  <path id="Path_89" data-name="Path 89" d="M352,32h2.161v2.161H352Zm0,0" transform="translate(-304.452 -27.677)" fill="#333"/>
  <path id="Path_90" data-name="Path 90" d="M272,32h8.645v2.161H272Zm0,0" transform="translate(-235.258 -27.677)" fill="#333"/>
  <path id="Path_91" data-name="Path 91" d="M276.323,336h-2.161A2.163,2.163,0,0,0,272,338.161v6.484a2.163,2.163,0,0,0,2.161,2.161h2.161a2.163,2.163,0,0,0,2.161-2.161v-6.484A2.163,2.163,0,0,0,276.323,336Zm-2.161,8.645v-6.484h2.161v6.484Zm0,0" transform="translate(-235.258 -290.613)" fill="#333"/>
  <path id="Path_92" data-name="Path 92" d="M180.323,336h-2.161A2.163,2.163,0,0,0,176,338.161v6.484a2.163,2.163,0,0,0,2.161,2.161h2.161a2.163,2.163,0,0,0,2.161-2.161v-6.484A2.163,2.163,0,0,0,180.323,336Zm-2.161,8.645v-6.484h2.161v6.484Zm0,0" transform="translate(-152.226 -290.613)" fill="#333"/>
  <path id="Path_93" data-name="Path 93" d="M80,192h2.161v2.161H80Zm0,0" transform="translate(-69.194 -166.065)" fill="#333"/>
  <path id="Path_94" data-name="Path 94" d="M80,224h2.161v2.161H80Zm0,0" transform="translate(-69.194 -193.742)" fill="#333"/>
  <path id="Path_95" data-name="Path 95" d="M80,256h2.161v2.161H80Zm0,0" transform="translate(-69.194 -221.419)" fill="#333"/>
  <path id="Path_96" data-name="Path 96" d="M144,192h2.161v2.161H144Zm0,0" transform="translate(-124.548 -166.065)" fill="#333"/>
  <path id="Path_97" data-name="Path 97" d="M144,224h2.161v2.161H144Zm0,0" transform="translate(-124.548 -193.742)" fill="#333"/>
  <path id="Path_98" data-name="Path 98" d="M144,256h2.161v2.161H144Zm0,0" transform="translate(-124.548 -221.419)" fill="#333"/>
  <path id="Path_99" data-name="Path 99" d="M208,192h2.161v2.161H208Zm0,0" transform="translate(-179.903 -166.065)" fill="#333"/>
  <path id="Path_100" data-name="Path 100" d="M208,224h2.161v2.161H208Zm0,0" transform="translate(-179.903 -193.742)" fill="#333"/>
  <path id="Path_101" data-name="Path 101" d="M208,256h2.161v2.161H208Zm0,0" transform="translate(-179.903 -221.419)" fill="#333"/>
  <path id="Path_102" data-name="Path 102" d="M272,192h2.161v2.161H272Zm0,0" transform="translate(-235.258 -166.065)" fill="#333"/>
  <path id="Path_103" data-name="Path 103" d="M272,224h2.161v2.161H272Zm0,0" transform="translate(-235.258 -193.742)" fill="#333"/>
  <path id="Path_104" data-name="Path 104" d="M272,256h2.161v2.161H272Zm0,0" transform="translate(-235.258 -221.419)" fill="#333"/>
</svg>
