<svg id="breakfast" xmlns="http://www.w3.org/2000/svg" width="82.795" height="82.795" viewBox="0 0 82.795 82.795">
  <g id="Group_27" data-name="Group 27">
    <rect id="Rectangle_34" data-name="Rectangle 34" width="39.956" height="3.196" transform="translate(11.188 79.24)" fill="#333"/>
    <path id="Path_22" data-name="Path 22" d="M10.683,281.414a12.016,12.016,0,0,0,1.335,23.958h1.058a14.781,14.781,0,0,0,4.284,4.284v2.393H44.068v-2.393a14.682,14.682,0,0,0,6.677-12.3V280H10.683Zm-8.012,11.94a9.355,9.355,0,0,1,8.012-9.241V297.36a14.587,14.587,0,0,0,1.015,5.326A9.353,9.353,0,0,1,2.671,293.354Zm10.683-10.683h34.72V297.36a12.032,12.032,0,0,1-12.019,12.019H25.373A12.032,12.032,0,0,1,13.354,297.36Z" transform="translate(0 -233.261)" fill="#333"/>
    <path id="Path_23" data-name="Path 23" d="M188.006,113.373h1.335a1.336,1.336,0,0,1,1.335,1.335v2.671h2.671v-2.671a4.011,4.011,0,0,0-4.006-4.006h-1.335a1.335,1.335,0,0,1,0-2.671h9.348a4.006,4.006,0,1,0,0-8.012h-1.335a1.336,1.336,0,0,1-1.335-1.335V88h-2.671V98.683a4.011,4.011,0,0,0,4.006,4.006h1.335a1.335,1.335,0,0,1,0,2.671h-9.348a4.006,4.006,0,1,0,0,8.012Z" transform="translate(-153.286 -73.311)" fill="#333"/>
    <path id="Path_24" data-name="Path 24" d="M84.006,106.7h1.335a1.336,1.336,0,0,1,1.335,1.335v9.348h2.671v-9.348a4.011,4.011,0,0,0-4.006-4.006H84.006a1.335,1.335,0,1,1,0-2.671h9.348a4.006,4.006,0,0,0,0-8.012H92.019a1.336,1.336,0,0,1-1.335-1.335V88H88.012v4.006a4.011,4.011,0,0,0,4.006,4.006h1.335a1.335,1.335,0,0,1,0,2.671H84.006a4.006,4.006,0,0,0,0,8.012Z" transform="translate(-66.646 -73.311)" fill="#333"/>
    <path id="Path_25" data-name="Path 25" d="M384.025,43.825V41.133a3.156,3.156,0,0,1,1.367-2.6l.042-.028a5.822,5.822,0,0,0,2.6-4.853v-5.6h-8.012V21.121a4,4,0,0,0,2.2-1.91,3.97,3.97,0,0,0,4.994-5,3.971,3.971,0,0,0,0-7.064,3.969,3.969,0,0,0-4.994-4.994,3.972,3.972,0,0,0-7.066,0,3.969,3.969,0,0,0-4.994,4.994,3.972,3.972,0,0,0,0,7.066,3.954,3.954,0,0,0,4.994,4.994,4,4,0,0,0,2.2,1.91v6.924h-8.012v5.6a5.827,5.827,0,0,0,2.6,4.854,3.158,3.158,0,0,1,1.409,2.632v2.692a3.172,3.172,0,0,1-.694,1.975A21.3,21.3,0,0,0,368,59.054V71.426a21.327,21.327,0,0,0,2.24,9.487l.941,1.882h15l.941-1.883a21.323,21.323,0,0,0,2.24-9.487V59.053A21.294,21.294,0,0,0,384.719,45.8,3.176,3.176,0,0,1,384.025,43.825ZM380.019,17.36a1.335,1.335,0,1,1-2.671,0V14.444a3.752,3.752,0,0,0,2.671,0V17.36Zm-8.012-5.342a1.335,1.335,0,1,1,0-2.671h2.917a3.751,3.751,0,0,0,0,2.671h-2.917Zm10.437-2.671h2.917a1.335,1.335,0,0,1,0,2.671h-2.917a3.751,3.751,0,0,0,0-2.671Zm-3.76,2.671a1.335,1.335,0,1,1,1.335-1.335A1.336,1.336,0,0,1,378.683,12.019Zm5.666,4.329a1.315,1.315,0,0,1-1.66.152V14.689H384.5A1.316,1.316,0,0,1,384.349,16.348Zm0-11.331a1.316,1.316,0,0,1,.152,1.66h-1.811V4.866A1.318,1.318,0,0,1,384.348,5.017Zm-7-1.011a1.335,1.335,0,1,1,2.671,0V6.923a3.752,3.752,0,0,0-2.671,0V4.006Zm-4.331,1.012a1.32,1.32,0,0,1,1.66-.152V6.677h-1.811A1.316,1.316,0,0,1,373.017,5.018Zm0,11.331a1.316,1.316,0,0,1-.152-1.66h1.811V16.5A1.318,1.318,0,0,1,373.018,16.349ZM386.7,71.425a18.63,18.63,0,0,1-1.958,8.291l-.2.407h-11.7l-.2-.407a18.631,18.631,0,0,1-1.958-8.291V59.053a18.618,18.618,0,0,1,4.064-11.585,5.855,5.855,0,0,0,1.278-3.643V41.133a5.827,5.827,0,0,0-2.6-4.854,3.154,3.154,0,0,1-1.409-2.631V30.714H385.36v2.934a3.154,3.154,0,0,1-1.367,2.6l-.041.028a5.826,5.826,0,0,0-2.6,4.855v2.692a5.864,5.864,0,0,0,1.278,3.644A18.611,18.611,0,0,1,386.7,59.054Z" transform="translate(-306.572)" fill="#333"/>
  </g>
  <rect id="Rectangle_35" data-name="Rectangle 35" width="39.956" height="3.196" transform="translate(11.188 52.07)" fill="#f9ba48"/>
</svg>
