<svg xmlns="http://www.w3.org/2000/svg" width="67.224" height="67.224" viewBox="0 0 67.224 67.224"><defs><style>.a{fill:#f0bc5e;}.b{fill:#2f4343;}</style></defs><path class="a" d="M61.275,32A29.275,29.275,0,1,0,90.55,61.275,29.308,29.308,0,0,0,61.275,32ZM54.769,67.781,46.1,46.1l21.685,8.674,8.674,21.685Zm0,0" transform="translate(-27.663 -27.663)"/><path d="M412.028,208.75c-.093-.691-.221-1.388-.38-2.068l2.111-.49c.174.746.315,1.509.418,2.269Zm0,0" transform="translate(-355.857 -178.246)"/><path d="M302.6,85.823a22.9,22.9,0,0,0-16.418-14.933l.491-2.112a25.091,25.091,0,0,1,17.982,16.356Zm0,0" transform="translate(-247.396 -59.456)"/><path d="M69.411,288.942c-.248-.744-.465-1.506-.642-2.267l2.111-.491c.161.7.359,1.391.587,2.07Zm0,0" transform="translate(-59.449 -247.396)"/><path d="M81.216,319.875a24.836,24.836,0,0,1-1.162-2.267l1.978-.889a22.949,22.949,0,0,0,1.06,2.07Zm0,0" transform="translate(-69.205 -273.793)"/><path d="M114,358.1a24.951,24.951,0,0,1-14.453-9.555l1.749-1.283a22.79,22.79,0,0,0,13.2,8.726Zm0,0" transform="translate(-86.052 -300.193)"/><path d="M240,32.664h2.169v8.584H240Zm0,0" transform="translate(-207.472 -28.237)"/><path d="M32.5,240H41.1v2.169H32.5Zm0,0" transform="translate(-28.092 -207.472)"/><path d="M240,400h2.169v8.674H240Zm0,0" transform="translate(-207.472 -345.787)"/><path d="M400,240h8.607v2.169H400Zm0,0" transform="translate(-345.787 -207.472)"/><path d="M264.965,266.5l1.533-1.533,5.608,5.608-1.533,1.533Zm0,0" transform="translate(-229.053 -229.057)"/><path d="M178.344,179.889l1.533-1.534,5.608,5.608-1.534,1.533Zm0,0" transform="translate(-154.172 -154.183)"/><path class="b" d="M146.114,131.426l-24.465-9.785,9.784,24.466,24.465,9.785Zm-20.574-5.893,17.81,7.125-2.276,2.277,1.533,1.533,2.275-2.277L152.008,152l-17.81-7.124,2.276-2.275-1.533-1.533-2.275,2.276Zm0,0" transform="translate(-105.161 -105.154)"/><path class="a" d="M213.421,218.843a5.421,5.421,0,1,1,5.421-5.421A5.428,5.428,0,0,1,213.421,218.843Zm0,0" transform="translate(-179.809 -179.809)"/><path d="M242.169,241.084A1.084,1.084,0,1,1,241.084,240,1.084,1.084,0,0,1,242.169,241.084Zm0,0" transform="translate(-207.472 -207.472)"/><path d="M67.224,8.674A8.672,8.672,0,0,0,50.817,4.751,33.644,33.644,0,1,0,62.473,16.407,8.643,8.643,0,0,0,67.224,8.674ZM58.55,2.169A6.494,6.494,0,0,1,61.282,14.56c-.425-.616-.873-1.214-1.337-1.8a4.325,4.325,0,1,0-5.482-5.481c-.586-.464-1.184-.912-1.8-1.337A6.473,6.473,0,0,1,58.55,2.169ZM56.422,8.954a2.1,2.1,0,0,1-.04-.28,2.169,2.169,0,1,1,2.169,2.169,2.065,2.065,0,0,1-.278-.04Q57.381,9.843,56.422,8.954Zm-22.81,56.1A31.444,31.444,0,1,1,65.056,33.612,31.48,31.48,0,0,1,33.612,65.056Zm0,0"/><path d="M242.169,241.084A1.084,1.084,0,1,1,241.084,240,1.084,1.084,0,0,1,242.169,241.084Zm0,0" transform="translate(-207.472 -207.472)"/><path d="M242.169,241.084A1.084,1.084,0,1,1,241.084,240,1.084,1.084,0,0,1,242.169,241.084Zm0,0" transform="translate(-207.472 -207.472)"/><path d="M242.169,241.084A1.084,1.084,0,1,1,241.084,240,1.084,1.084,0,0,1,242.169,241.084Zm0,0" transform="translate(-207.472 -207.472)"/></svg>