<svg xmlns="http://www.w3.org/2000/svg" width="64.58" height="67" viewBox="0 0 64.58 67">
  <g id="Group_217" data-name="Group 217" transform="translate(-1083 -2897)">
    <g id="barbecue" transform="translate(1083 2897)">
      <path id="Path_60" data-name="Path 60" d="M35.581,7.442V4.782a3.782,3.782,0,0,0-7.565,0V6.261a9.664,9.664,0,0,1-7.247,9.4,7.564,7.564,0,1,0-10.953.515A9.736,9.736,0,0,0,1,25.855v5.4a5.409,5.409,0,0,0,5.4,5.4h.1L1.1,62.74A4.331,4.331,0,0,0,4.389,67.9a4.376,4.376,0,0,0,5.148-3.26l4.19-17.061-.7,16.058A4.185,4.185,0,0,0,17.21,68a4.327,4.327,0,0,0,4.323-4.323v-40.1A16.381,16.381,0,0,0,35.581,7.442ZM9.645,10.726a5.4,5.4,0,1,1,5.4,5.4A5.409,5.409,0,0,1,9.645,10.726Zm10.723,10.81-1,.077V63.677a2.163,2.163,0,0,1-2.161,2.161,2.024,2.024,0,0,1-2.023-2.11l.991-22.744H13.121L7.432,64.146a2.2,2.2,0,0,1-2.578,1.642,2.17,2.17,0,0,1-1.638-2.595l5.5-26.532h4.716a3.782,3.782,0,0,0,0-7.565H8.565v-5.4H6.4v5.4a2.163,2.163,0,0,0,2.161,2.161h4.863a1.621,1.621,0,0,1,0,3.242H6.4a3.246,3.246,0,0,1-3.242-3.242v-5.4a7.574,7.574,0,0,1,7.565-7.565l4.269,0c.018,0,.036,0,.054,0s.037,0,.055,0h2.2l2.059-.187A11.831,11.831,0,0,0,30.177,6.261V4.782a1.621,1.621,0,0,1,3.242,0V7.442A14.2,14.2,0,0,1,20.368,21.535Z" transform="translate(-1 -1)" fill="#333"/>
    </g>
    <g id="barbecue-2" transform="translate(1108.935 2913.21)">
      <path id="Path_74" data-name="Path 74" d="M347.236,11.9l-.881-.881,3.374-3.374.441.441a2.182,2.182,0,1,0,1.543-3.724,1.359,1.359,0,0,0-.18.018l-.884.111.111-.884a1.375,1.375,0,0,0,.018-.18,2.182,2.182,0,1,0-3.724,1.543l.441.441L344.12,8.785l-.881-.881,2.532-2.532a3.429,3.429,0,1,1,6.241-2.243,3.428,3.428,0,1,1-2.242,6.241Zm0,0" transform="translate(-316.496 0)" fill="#333"/>
      <path id="Path_75" data-name="Path 75" d="M264,384h1.247v1.247H264Zm0,0" transform="translate(-243.431 -354.082)" fill="#333"/>
      <path id="Path_76" data-name="Path 76" d="M303.883,354.406l-.808-.949a9.965,9.965,0,0,1-6.452,2.38H296v1.247h.623A11.212,11.212,0,0,0,303.883,354.406Zm0,0" transform="translate(-272.938 -325.919)" fill="#333"/>
      <path id="Path_77" data-name="Path 77" d="M30.67,145.843l-.383,1.186c4.452,1.437,7.111,3.646,7.111,5.91,0,4.054-8.277,7.479-18.075,7.479s-18.075-3.425-18.075-7.479c0-3.85,7.559-7.2,16.85-7.462l-.036-1.246C7.764,144.524,0,148.267,0,152.939a5.236,5.236,0,0,0,1.779,3.715,13.708,13.708,0,0,0,6.938,8.477l-2.823,16.18a1.571,1.571,0,0,0,1.288,2.472H8.219a1.567,1.567,0,0,0,1.307-.7l3.006-16.655a13.592,13.592,0,0,0,2.427.222h2.493v15.561a1.573,1.573,0,0,0,1.571,1.571h.6a1.573,1.573,0,0,0,1.571-1.571V166.651h2.493a13.6,13.6,0,0,0,2.427-.222l3.006,16.655a1.568,1.568,0,0,0,1.307.7h1.038a1.571,1.571,0,0,0,1.286-2.472l-2.823-16.18a13.706,13.706,0,0,0,6.938-8.477,5.235,5.235,0,0,0,1.779-3.715C38.644,150.064,35.737,147.477,30.67,145.843ZM8.489,182.393a.324.324,0,0,1-.27.144H7.18a.325.325,0,0,1-.265-.511l2.956-16.37a13.453,13.453,0,0,0,1.366.467Zm11.457-.181a.324.324,0,0,1-.325.325h-.6a.324.324,0,0,1-.324-.325V166.651h1.247Zm11.784-.186a.324.324,0,0,1-.266.51H30.425a.323.323,0,0,1-.27-.145l-2.748-16.268a13.764,13.764,0,0,0,1.366-.467ZM23.685,165.4H14.959A12.471,12.471,0,0,1,3.617,158.08c3.478,2.185,9.162,3.585,15.7,3.585s12.227-1.4,15.7-3.585A12.471,12.471,0,0,1,23.685,165.4Zm0,0" transform="translate(0 -132.993)" fill="#333"/>
      <path id="Path_78" data-name="Path 78" d="M46.959,184.426H45.712v4.242a35.119,35.119,0,0,1-3.74-.5v-8.735a34.421,34.421,0,0,1,3.633-.491l-.1-1.242c-7.446.607-13.5,3.343-13.5,6.1,0,2.943,7.2,6.233,16.829,6.233s16.829-3.29,16.829-6.233c0-1.722-2.493-3.562-6.5-4.8l-.369,1.191c.7.218,1.329.447,1.887.68v5.87a24.056,24.056,0,0,1-3.74,1.172v-3.484H55.685v3.745a34.963,34.963,0,0,1-3.74.5V186.92H50.7v1.826c-.608.028-1.23.044-1.87.044s-1.262-.016-1.87-.044Zm-6.233,3.484a23.926,23.926,0,0,1-3.74-1.172v-5.852a23.424,23.424,0,0,1,3.74-1.188Zm-7.48-4.107c0-.577.854-1.465,2.493-2.333v4.7C34.129,185.331,33.247,184.454,33.247,183.8Zm28.671-2.352c1.774.937,2.493,1.856,2.493,2.352,0,.651-.883,1.527-2.493,2.364Zm0,0" transform="translate(-29.507 -163.858)" fill="#333"/>
      <path id="Path_79" data-name="Path 79" d="M177.247,9.973H176c0-1.236,1.242-1.788,2.24-2.231.737-.327,1.5-.666,1.5-1.091s-.762-.765-1.5-1.093c-1-.444-2.24-1-2.24-2.233s1.242-1.788,2.24-2.232c.737-.327,1.5-.666,1.5-1.093h1.247c0,1.236-1.242,1.789-2.24,2.232-.737.328-1.5.667-1.5,1.093s.762.765,1.5,1.093c1,.444,2.24,1,2.24,2.232s-1.242,1.788-2.24,2.231C178.009,9.208,177.247,9.547,177.247,9.973Zm0,0" transform="translate(-162.288 0)" fill="#333"/>
      <path id="Path_80" data-name="Path 80" d="M97.247,25.973H96c0-1.236,1.242-1.788,2.24-2.231.737-.327,1.5-.666,1.5-1.091s-.762-.765-1.5-1.093c-1-.444-2.24-1-2.24-2.233s1.242-1.788,2.24-2.232c.737-.327,1.5-.666,1.5-1.093h1.247c0,1.236-1.242,1.789-2.24,2.232-.737.328-1.5.667-1.5,1.093s.762.765,1.5,1.093c1,.444,2.24,1,2.24,2.232s-1.242,1.788-2.24,2.231C98.009,25.208,97.247,25.547,97.247,25.973Zm0,0" transform="translate(-88.52 -14.753)" fill="#333"/>
      <path id="Path_81" data-name="Path 81" d="M198.856,112.206A6.856,6.856,0,0,1,195.63,99.3l5.222-2.785A4.392,4.392,0,0,1,202.911,96a4.348,4.348,0,0,1,3.095,1.282l.918.918a4.347,4.347,0,0,1,1.282,3.095,4.4,4.4,0,0,1-.515,2.06l-2.785,5.222A6.845,6.845,0,0,1,198.856,112.206Zm0,0" transform="translate(-177.041 -88.52)" fill="#f0bc5e"/>
      <path id="Path_82" data-name="Path 82" d="M228.363,202.134A4.368,4.368,0,0,1,224,197.771h1.247a3.117,3.117,0,0,0,5.867,1.467l1.6-3.007,1.1.587-1.6,3.006A4.354,4.354,0,0,1,228.363,202.134Zm0,0" transform="translate(-206.548 -180.942)" fill="#333"/>
      <path id="Path_83" data-name="Path 83" d="M340.145,173.481l.665-1.247,1.1.587-.665,1.247Zm0,0" transform="translate(-313.643 -158.815)" fill="#333"/>
    </g>
  </g>
</svg>
