<svg xmlns="http://www.w3.org/2000/svg" width="43.11" height="70.338" viewBox="0 0 43.11 70.338"><defs><style>.a{fill:#f0bc5e;}</style></defs><g transform="translate(-1558 -712.901)"><g transform="translate(1558 712.901)"><path class="a" d="M62.748,221.5A14.748,14.748,0,1,1,77.5,206.748,14.765,14.765,0,0,1,62.748,221.5Zm0,0" transform="translate(-41.193 -164.772)"/><path d="M34.55,11.345H28.892a7.928,7.928,0,0,0,.6-3.02V7.941a7.941,7.941,0,0,0-15.883,0v.383a7.924,7.924,0,0,0,.6,3.02H8.561L0,21.129V66.934a3.408,3.408,0,0,0,3.4,3.4h36.3a3.408,3.408,0,0,0,3.4-3.4V21.129Zm-17.858-.1a5.67,5.67,0,0,1-.809-2.918V7.941a5.672,5.672,0,1,1,11.345,0v.383a5.67,5.67,0,0,1-.809,2.918l-.061.1H16.752ZM39.707,68.069H3.4a1.135,1.135,0,0,1-1.134-1.134V22.69H14.748V20.421H3.635l5.956-6.807H25l-1.6,2.667a4.487,4.487,0,0,0-1.84-.4,4.538,4.538,0,1,0,4.538,4.538,4.493,4.493,0,0,0-.913-2.7l2.463-4.1h5.876l5.956,6.807H28.362V22.69H40.841V66.934A1.135,1.135,0,0,1,39.707,68.069ZM23.824,20.421a2.269,2.269,0,1,1-2.269-2.269,2.217,2.217,0,0,1,.654.108l-.946,1.578,1.945,1.168.577-.963A2.2,2.2,0,0,1,23.824,20.421Zm0,0"/><path d="M32,448H61.5v2.269H32Zm0,0" transform="translate(-27.462 -384.469)"/><path d="M256,448h2.269v2.269H256Zm0,0" transform="translate(-219.697 -384.469)"/><path d="M32,416H66.034v2.269H32Zm0,0" transform="translate(-27.462 -357.007)"/></g><path d="M14.073,5.174a.548.548,0,0,0,.548-.548V2.8a.548.548,0,0,0-.548-.548H.548A.548.548,0,0,0,0,2.8V4.843a.548.548,0,0,0,.548.548h3.9A3.3,3.3,0,0,1,7.231,6.636H.548A.548.548,0,0,0,0,7.185V9.012a.548.548,0,0,0,.548.548H7.8a3.158,3.158,0,0,1-3.416,2.679H.548A.548.548,0,0,0,0,12.788V15.21a.548.548,0,0,0,.176.4l7.541,6.961a.548.548,0,0,0,.372.145h3.772a.548.548,0,0,0,.372-.951L5.34,15.4A6.259,6.259,0,0,0,11.66,9.56h2.413a.548.548,0,0,0,.548-.548V7.185a.548.548,0,0,0-.548-.548H11.391a6.259,6.259,0,0,0-.651-1.462Z" transform="translate(1572 744.209)"/></g></svg>