<svg xmlns="http://www.w3.org/2000/svg" width="22.887" height="22.589" viewBox="0 0 22.887 22.589"><defs><style>.a{fill:#b39165;}</style></defs><path class="a" d="M3.315,7.379a1.652,1.652,0,0,1,.429-.9L7.178,3.092q.4-.338.6.113l2.775,5.133a.731.731,0,0,1-.143.874L9.152,10.453a1.4,1.4,0,0,0-.4.874A4.27,4.27,0,0,0,9.639,13.5a18.578,18.578,0,0,0,1.745,2.257l.887.9c.267.264.61.588,1.031.973a17.255,17.255,0,0,0,2.074,1.523,4.679,4.679,0,0,0,2.275.945,1.255,1.255,0,0,0,.916-.367l1.489-1.467a.635.635,0,0,1,.858-.113l5.008,2.905a.413.413,0,0,1,.229.3.357.357,0,0,1-.114.324L22.6,25.063a1.692,1.692,0,0,1-.915.422,7.016,7.016,0,0,1-3.163-.381,14.4,14.4,0,0,1-3.261-1.537q-1.5-.959-2.79-1.945t-2.06-1.692l-.744-.706q-.286-.282-.758-.776T7.264,16.5a28.329,28.329,0,0,1-2.032-2.835,16.428,16.428,0,0,1-1.488-3.145A6.6,6.6,0,0,1,3.315,7.379Z" transform="translate(-3.267 -2.947)"/></svg>