<svg xmlns="http://www.w3.org/2000/svg" width="232.005" height="105.117" viewBox="0 0 232.005 105.117"><defs><style>.a,.b,.c,.d{fill:#1b303d;}.a{font-size:20px;font-family:Poppins-Medium, Poppins;font-weight:500;}.b{font-size:18px;font-family:Poppins-Regular, Poppins;letter-spacing:0.01em;}.c{font-size:26px;font-family:JelesW01-Regular;}.d{stroke:#1b303d;}.e{fill:#ba8c61;}.f{fill:#fff;}.g{fill:none;}</style></defs><g transform="translate(-265 -12)"><g transform="translate(6 -10)"><text class="a" transform="translate(396 57)"><tspan x="0" y="0">Piramal</tspan></text><text class="b" transform="translate(384 108)"><tspan x="0" y="0" xml:space="preserve">RANI  BAUG</tspan></text><text class="c" transform="translate(383 82)"><tspan x="0" y="0">Aranya</tspan></text><path class="d" d="M0,0H73.758" transform="translate(378 87.438)"/><path class="d" d="M0,0H25.638" transform="translate(465.367 87.438)"/></g><g transform="translate(188.313 -266.393)"><path class="e" d="M120.363,375.75s4.709.956,4.993,1.026,2.018-1.664,3.363-3.611a36.808,36.808,0,0,0,3.258-6.48c.424-1.169,1.912-7.188,2.229-8.958s1.134-9.028,1.416-10.87a10.179,10.179,0,0,1,2.9-5.1,14.823,14.823,0,0,1,3.788-2.231,17.884,17.884,0,0,1,4.284-.778c1.31-.036,2.975-.071,3.966,0a13.22,13.22,0,0,1,3.4.849,6.81,6.81,0,0,1,1.805,1.523,7.653,7.653,0,0,0-.78,2.548,5.668,5.668,0,0,0,.78,2.479,3.586,3.586,0,0,0,2.8,1.558,3.759,3.759,0,0,0,4.071-3.858c.035-3.01-1.451-4.143-3.328-4.214,0,0-1.76.166-2.117.284l-.357.12a3.783,3.783,0,0,0,.753-1.032c.119-.4-.476.555-1.11.753s-1.744-.555-2.18-.832a11.127,11.127,0,0,0-2.776-1.03,11.278,11.278,0,0,1,4-1.269c.951,0,2.815,1.228,4.44.793s5.352-3.37,6.462-6.066.437-1.982.437-1.982-2.181,2.26-3.608,2.7a40.376,40.376,0,0,0-4.441,1.15,13.547,13.547,0,0,0-3.528,2.617c-.555.594-3.37,1.228-4.2,1.308s-3.331.316-4.956.555-4.757.832-5.907,1.625a28.407,28.407,0,0,0-3.767,3.331c-.436.554,2.221-3.41,4-4.481s1.824-1.189,2.26-1.387,2.221,0,4.322-.357a18.161,18.161,0,0,0,6.184-2.26,41.479,41.479,0,0,0,4.877-4.322c.673-.871-3.41-.157-5.709.041a10.041,10.041,0,0,0-5.114,2.14,43.6,43.6,0,0,0-4.877,3.924c-.832.833-2.814,1.944-3.567,2.617s-2.974,2.656-2.974,2.656a9.06,9.06,0,0,1,1.23-2.617,16.219,16.219,0,0,1,3.012-2.656c.951-.554,3.965-2.5,4.757-3.012s4.441-3.133,6.105-4.282a11.209,11.209,0,0,1,4.8-1.9,8.711,8.711,0,0,1,3.37.555,8.877,8.877,0,0,0,2.974.753,8.091,8.091,0,0,0,4.96-1.507,23.193,23.193,0,0,0,3.6-3.528c.6-.595-.475-.2-2.339,0s-2.894.514-5.748.634-5.272,1.744-6.462,2.14-4.043,1.428-4.44,1.626.277-2.022.714-2.617a7,7,0,0,1,3.488-2.1c1.864-.558,5.352-1.231,6.739-1.985a10.06,10.06,0,0,0,4.441-5.114,17.292,17.292,0,0,0-8.762,1.269c-1.824.95-2.776,1.268-3.688,2.735s.635-2.022,1.665-3.211a7.916,7.916,0,0,1,4-2.221,20.093,20.093,0,0,0,5.589-1.348,16.548,16.548,0,0,0,4.757-3.171,14.788,14.788,0,0,0,3.013-6.324c-2.774.912-3.568,2.062-5.232,2.735s-4.718,1.19-6.978,2.9-4.083,3.012-5.232,5.232-2.617,5.075-3.053,6.145-1.428,4.877-2.26,5.987a23.932,23.932,0,0,1-5.352,5.074c-2.736,1.9-4.163,2.339-5.589,3.41a16.273,16.273,0,0,0-3.688,3.686c-.991,1.428-.673-1.348-.475-2.021a5.449,5.449,0,0,1,2.537-2.458,21.952,21.952,0,0,0,7.414-4.2,23.155,23.155,0,0,0,4.559-6.343c.514-1.071,1.348-3.608,1.348-3.608a31.125,31.125,0,0,1-3.211,2.141c-.873.4-2.537,1.7-4,2.378a10.148,10.148,0,0,0-3.568,3.013,38.325,38.325,0,0,0-2.378,4.084c-.357.793-.753,1.942-1.348,2.259s-.714-.2-.714-.2a9.309,9.309,0,0,1,1.269-4.242,20.4,20.4,0,0,1,4.2-5.154,33,33,0,0,1,4.915-3.013c1.824-.832,5.75-3.528,7.1-5.55s2.06-5.431,2.3-6.462c-1.308.239-4.52,1.428-5.709,2.7s-2.776,3.726-4,5.193a10.7,10.7,0,0,1-2.458,3.647c-1.784,1.744-2.815,2.677-3.529,3.321a24.676,24.676,0,0,0-3.567,4.489,41.015,41.015,0,0,0-1.942,4.083c-.675,1.824-.635,2.935-1.11,3.013s-.594-.436-.476-1.189a15.9,15.9,0,0,1,1.665-4.361,81.852,81.852,0,0,1,4.757-7.1,25.76,25.76,0,0,0,3.965-6.542,17.88,17.88,0,0,0,.555-6.421c-.159-1.428-.912-5.511-.555-6.621s-3.37,2.854-4,4.043a13.162,13.162,0,0,0-1.308,4.6,19.25,19.25,0,0,0,1.348,5.55,5.9,5.9,0,0,1,.119,3.767c-.318.634-3.292,4.361-4.124,5.788a29.069,29.069,0,0,0-2.1,4.045c-.159.634-.278,1.348-.476,1.427a.425.425,0,0,1-.254.06c-.044-.013-.146-.06-.221-.3a10.126,10.126,0,0,1-.189-3.351,6.453,6.453,0,0,0,0-1.33c-.022-.207-.066-.632-.149-.635-.121-.006-.258.912-.281,1.072-.383,2.586.594,6.159-.042,7.543-.057.124-.223.472-.405.472-.2,0-.316-.2-.316-.517s-.2-7.28-.089-8.451a67.241,67.241,0,0,1,1.46-8.476,64.455,64.455,0,0,0,1.508-6.433c.2-1,1.281-3.018,1.48-5.123s-.342-4.725-1.31-5.893-2.362-2.988-2.362-2.988-1.451-1.593-1.851-1.906.227,1.395.313,2.248a45.294,45.294,0,0,1-.114,5.237,12.1,12.1,0,0,0,.74,5.037c.74,1.708,1.422,2.7,1.622,4.042a11.7,11.7,0,0,1-.028,3.5c-.143.74-.713,2.334-.826,2.789s-.768,2.761-.854,3.388-.455,3.5-.511,4.269-.029,2.9-.4,3.245-.8.2-1.024-.256a4.312,4.312,0,0,1-.769-2.732,11.029,11.029,0,0,1,1.31-4.868,13.025,13.025,0,0,0,1.622-4.24c.115-1.367.37-4.128-.057-5.323a20.371,20.371,0,0,0-2.448-4.326c-.568-.627,0,.938-.114,1.85a11.724,11.724,0,0,1-1.167,3.386,11.366,11.366,0,0,0-1.338,3.558,10.637,10.637,0,0,0,.256,3.672,21.077,21.077,0,0,1,.94,3.329c.028.711-.143,2.277-.029,2.846a16.435,16.435,0,0,0,.513,2.448c.313.911,1.679,1.594,1.935,2.448a9.254,9.254,0,0,1,.342,2.42,14.139,14.139,0,0,1-.143,3.359c-.284,1.024-.654.085-.769-.456a19.369,19.369,0,0,0-.739-3.871,29.836,29.836,0,0,0-1.31-2.9,18.893,18.893,0,0,1-2.164-6.6c-.312-3.016-1.024-7.428-.427-10.844s2.5-6.69,2.989-9.052a18.945,18.945,0,0,0,.2-6.888,20.066,20.066,0,0,0-1.365-3.9,25.066,25.066,0,0,1-.713,3.756c-.313.627-1.594,2.734-2.021,3.729a32.75,32.75,0,0,0-1.622,4.5,13.869,13.869,0,0,0-.143,4.667c.2,1.821,1.224,3.245,1.424,4.725s.4,5.037.57,6.118.085,2.078.455,4.042a24.508,24.508,0,0,0,1.224,4.355,24.992,24.992,0,0,1,1.851,4.383,23.347,23.347,0,0,1,.541,3.786c0,1.224.256,4.242.143,5.436s-.057,1.878-.256,1.85-.143-1.31-.17-2.078a35.379,35.379,0,0,0-.769-4.982c-.37-1.422-1.451-5.521-1.992-6.8s-.854-1.993-1.451-3.331-1.619-4.3-3.115-5.265-4.371-1.224-5.082-1.339a13.925,13.925,0,0,1-3.872-2.135c-.511-.541-.284.427,0,1.026a6.506,6.506,0,0,0,1.794,2.562,11.342,11.342,0,0,0,3.018,1.992,10.629,10.629,0,0,1,2.9,1.594c.57.455,2.648.968,3.928,2.959s1.195,2.221.825,2.307a20.985,20.985,0,0,1-3.756-1.281,44.611,44.611,0,0,0-6.092-1.053c-.882-.086-1.422-1.31-1.479-2.477a9.573,9.573,0,0,0-1.651-4.951c-1.11-1.281-2.562-3.217-3.415-3.5s-.286,2.9.17,4.326a14.612,14.612,0,0,0,3.018,4.725c.911.8,1.8,1.709,1.406,1.619s-4.553-.361-5.308-.332-3.437-2.291-4.342-2.563-2.5-.271-3.86-1.206-3.378-2.5-4.7-2.623a32.1,32.1,0,0,0-7.6-.271c-4.192.331-4.8,3.437-5.368,4.252a29.715,29.715,0,0,1-2.292,3.287c-.6.542-.755.813.784.513a10.834,10.834,0,0,0,4.553-1.781,14.7,14.7,0,0,0,2.774-3.668c.482-1.036,1.026-1.549.482-1.338s-5.91,5.126-5.91,5.126a18.838,18.838,0,0,1,4.824-5.337,29.509,29.509,0,0,1,5.731-.242,9.192,9.192,0,0,1,3.166.935c-.6.452-2.2.663-4.132,2.442s-3.136,4.282-4.312,5.1a30.2,30.2,0,0,1-2.986,2.05c-.724.332-.09.363.965.332a17.313,17.313,0,0,0,5.579-.965,8.759,8.759,0,0,0,4.734-3.95c.513-1,1.026-2.5,1.81-2.745a4.219,4.219,0,0,1,2.413.3c.784.242,2.171.3,2.684.453s1.96.965,1.447,1a9.786,9.786,0,0,0-3.015.632,9.242,9.242,0,0,0-3.2,3.047,13.37,13.37,0,0,1-2.774,3.829c-.664.392-1.81.753-1.358.844a9.635,9.635,0,0,0,5.821-.551,10.231,10.231,0,0,0,4.613-3.882c.482-.724.9-1.537,1.6-1.719a9.989,9.989,0,0,1,2.715-.181c.815.061,2.442.211,3.166.272a29.081,29.081,0,0,1-3.166,3.829c-.544.332-2.653.3-3.318.6s-1.81,2.352-3.015,2.955-1.237.874-2.655.784a2.269,2.269,0,0,0,2.323,1.448,5.248,5.248,0,0,0-.181,2.171c1-.363,1.689-1.6,1.568-1.056a5.086,5.086,0,0,0-.152,1.66,3.852,3.852,0,0,0,2.082-.845,4.117,4.117,0,0,0,1.869,2.382,9.411,9.411,0,0,0,.542-1.9c.784-1.024,2.052-3.136,2.081-4.4a6.221,6.221,0,0,0-.482-2.684c-.24-.574.031-.874.423-1.418a18.163,18.163,0,0,1,2.986-3.136,5.007,5.007,0,0,1,2.594-.392c.844.06,2.261.421,3.679.663a10.014,10.014,0,0,1,4.433,1.81,8.271,8.271,0,0,1,2.715,4.312,33.032,33.032,0,0,1,1.718,8.2,55.936,55.936,0,0,1-.421,12.515c-.453,2.081-.242,5.247-3.74,11.157s-4.041,6.484-4.492,7.087l1.628.332s1.629-2.323,2.534-3.921a52.114,52.114,0,0,0,3.89-8.263A91.024,91.024,0,0,0,128.06,352.6c.031-.723.361-7.147.423-7.841s.663-1.176.694.211-.031,6.936-.392,10.073a51.224,51.224,0,0,1-1.568,8.534c-.544,1.447-2.8,6.725-4.524,8.9A27.483,27.483,0,0,0,120.363,375.75Z" transform="translate(0.679 6.733)"/><path class="e" d="M133.618,339.162a8.65,8.65,0,0,1-4.73,1.118c-1.751-.223-4.173-.484-5.066-1.714s-.857-2.347-1.155-1.6a4.837,4.837,0,0,0-.3,2.755,2.544,2.544,0,0,0,1.974.933c.035-.007.052-.009.054,0a21.482,21.482,0,0,0-2.136,1.718,8.864,8.864,0,0,0-1.4,1.954,12.7,12.7,0,0,0-.823,1.839,22.019,22.019,0,0,0-1,3.574,22.7,22.7,0,0,0-.023,7.924,19.884,19.884,0,0,0,.711,2.75,21.5,21.5,0,0,0,.906,2.183,43.059,43.059,0,0,0,2.033,3.841,17.066,17.066,0,0,1-.372-4.769c.223-1.34.6-.185,1.042.3a16.4,16.4,0,0,0,4.322,3.128,14.824,14.824,0,0,0,3.389.857c-1.432-.889-2.368-1.8-2.312-2.315a.86.86,0,0,1,.235-.532.89.89,0,0,1,.514-.169c.522-.112,4.32-.261,5.773-.857a29.28,29.28,0,0,0,9.425-5.588c4.583-3.912,6.035-4.992,8.829-8.9s5.1-7.376,6.593-11.66,2.869-10.021,2.757-12.852-.969-10.3-.708-11.772-1.527.242-2.309.95a27.641,27.641,0,0,0-5.476,5.849,21.513,21.513,0,0,0-3.8,9.983c-.058.421,0,.134-.275,4.384a25.736,25.736,0,0,1-.3,3.13,10.008,10.008,0,0,1-.813,3.1c-.689,1.274-2.671,3.778-2.771,4.326l-.022.119c-.026.144-.074.4-.138.712,0,0-.243,1.2-.519,2.222a23.413,23.413,0,0,1-3.214,6.95,15.362,15.362,0,0,1-1.786,2.1,18.5,18.5,0,0,1-6.882,4.842,14.8,14.8,0,0,1-3.957.951,7.922,7.922,0,0,1-1.518.017,6.429,6.429,0,0,1-2.943-1.192,7,7,0,0,1-1.352-1.325c-.854-1.123-.737-1.961-1.256-6.685a15.927,15.927,0,0,1-.111-2.39c.067-2.078.522-2.719.931-3.048a2.61,2.61,0,0,1,.449-.271c1.311-.7,1.922-.376,2.942-.794a5.94,5.94,0,0,0,2.277-1.966,7.826,7.826,0,0,1,.879-1.052,7.138,7.138,0,0,1,1.425-1.021c1.288-.726,1.872-.785,2.161-1.266C133.991,339.552,133.618,339.162,133.618,339.162Z" transform="translate(19.194 14.776)"/><path class="e" d="M126.431,338.577a17.6,17.6,0,0,1,4.191-.957,50.572,50.572,0,0,0,6.268-.793,15.958,15.958,0,0,0,4.884-2.342c.89-.826,1.617-1.221.726.758s-1.419,4.258-3.035,6.2a45.365,45.365,0,0,1-4.389,5.015,11.572,11.572,0,0,1-4.454,2.31,13.151,13.151,0,0,1-5.081,0,4.587,4.587,0,0,1-2.607-2.377,6.442,6.442,0,0,1-.529-3.63,5.331,5.331,0,0,1,1.848-3.069C125.078,339.2,126.431,338.577,126.431,338.577Z" transform="translate(20.863 25.33)"/><path class="e" d="M110.4,360.822c.175-.147.43-.372.718-.663a12.127,12.127,0,0,0,2.553-4c2.48-5.716,2.378-5.014,2.821-6.432a32.284,32.284,0,0,0,1.354-8.125,44.247,44.247,0,0,0-.509-10.042,8.371,8.371,0,0,1,3.047,1.524c.959.959.283-2.145-.79-3.047a7.467,7.467,0,0,0-2.6-1.41c-.621-.226-.338-1.749-2.652-4.006s-3.047-4.345-3.385-3.724.114,3.442-.112,4.683-.847,2.933-.509,3.949a6.031,6.031,0,0,0-1.918,3.16,5.655,5.655,0,0,0,.338,3.159c.283.507.847-1.919,1.862-2.709s1.918-1.635,2.2-.112.507,4.062-.338,4.964-2.145,2.824-4.909,2.879-4.909-2.09-5.98-2.991-3.216-3.2-4.966-3.914a21.271,21.271,0,0,0-6.487-1.616,61.042,61.042,0,0,0-6.376-.055c-1.749.112,1.072.522,1.976,1.671s1.24,1.262,2.65.979c.17.678-.564,2.371-.564,3.611a12.6,12.6,0,0,0,2.483,9.2,39.932,39.932,0,0,0,12.976,10.494c1.467-.114.408-.283-1.263-2.2s-2.742-2.99-3.306-4.964c1.862-.564,2.2,1.016,5.811,1.072a10.308,10.308,0,0,0,5.416-1.185c-.533,5.655-.962,7.957-1.3,8.689-.039.083-.2.418-.112.49.157.128,1.023-.634,1.578-1.281a7.363,7.363,0,0,0,1.355-2.369q-.356,1.606-.79,3.273C110.591,360.127,110.5,360.475,110.4,360.822Z" transform="translate(2.982 19.38)"/><path class="f" d="M94.333,333.854a1.23,1.23,0,0,0-.577,1.155c.13.587.908.826,1.427.815s1.294-.3,1.392-.883c.1-.616-.6-1.23-1.256-1.325A1.429,1.429,0,0,0,94.333,333.854Z" transform="translate(7.794 25.237)"/><path class="f" d="M97.041,335.866c-.388.128-.825.272-.95.645-.166.494.335,1.037.475,1.189a2.635,2.635,0,0,0,2.514.713c.163-.039,1.33-.323,1.427-1.052s-.969-1.311-1.121-1.393A2.932,2.932,0,0,0,97.041,335.866Z" transform="translate(8.855 26.179)"/><path class="g" d="M100.026,337.567a.427.427,0,1,0,.373.747.421.421,0,1,0-.373-.747Z" transform="translate(10.524 27.025)"/><path class="f" d="M101.31,335.591a2.719,2.719,0,0,0-.815.747c-.2.288-.392.554-.306.747.156.347,1.113.254,1.7.1.525-.137,1.38-.36,1.494-.985a1.039,1.039,0,0,0-.543-1.053C102.38,334.931,101.865,335.247,101.31,335.591Z" transform="translate(10.733 25.911)"/><path class="f" d="M103.61,333.682a.616.616,0,0,0-.577.747.536.536,0,0,0,.475.373.578.578,0,0,0,.578-.577A.562.562,0,0,0,103.61,333.682Z" transform="translate(12.034 25.272)"/><path class="f" d="M92.963,331.631a.926.926,0,0,0-.306.815,1.135,1.135,0,0,0,.577.714c.6.407,1.782.826,2.208.3a1.179,1.179,0,0,0-.067-1.256,1.557,1.557,0,0,0-.883-.612C94.208,331.494,93.437,331.213,92.963,331.631Z" transform="translate(7.295 24.234)"/><path class="e" d="M89.851,321.407a8.156,8.156,0,0,0-4.154.631,16.643,16.643,0,0,1-4.412,1.7c-1.118.16-2.076.064-1.374.447a7.659,7.659,0,0,0,3.069,1.247c1.119.032,3.261.415,4.826-.511a13.784,13.784,0,0,0,3.133-2.589c.013-.015.045-.054.034-.087-.051-.165-1.052-.06-1.9.185-.889.258-.991.493-2.356,1.021a6.143,6.143,0,0,1-1.218.395,6.3,6.3,0,0,1,1.378-.717,11.887,11.887,0,0,0,2.971-1.724Z" transform="translate(1.364 19.645)"/><path class="e" d="M101.786,314.892a2.7,2.7,0,0,1-2.152-.335,7.665,7.665,0,0,0-3.491-2.487,11.191,11.191,0,0,0-4.38.372c-1,.149,1.41.255,2,1.018s1.485,2.174,2.449,2.4a8.276,8.276,0,0,0,3.045.223A7.451,7.451,0,0,0,101.786,314.892Z" transform="translate(6.781 15.339)"/><path class="e" d="M101.173,303.806a8.3,8.3,0,0,0,1.447,3.847,14.429,14.429,0,0,1,2.929,4.269c.705,1.765.211,2.54.211,2.54a19.606,19.606,0,0,0-2.21-1.693A6.211,6.211,0,0,1,101,309.487a11.183,11.183,0,0,1-.389-3.035A12.106,12.106,0,0,1,101.173,303.806Z" transform="translate(10.932 11.616)"/><path class="e" d="M101.648,301.754a5.082,5.082,0,0,1,1.834,1.834,15.073,15.073,0,0,1,1.967,3.952c.4,1.553.679,2.894.927,4.128a5.565,5.565,0,0,0,1.482,3.158c.847.759,1.834,1.607,2.47,2.065s.491-1.715-.389-3.034a53.083,53.083,0,0,1-3.053-7.358c-.3-.95-.51-1.322-.016-.723s.931,2.495,1.661,3.567a29.43,29.43,0,0,1,1.973,4.514c.176.388.6-.283.423-1.553s-.447-4.393-1.032-5.458a13.042,13.042,0,0,0-1.431-1.722,10.794,10.794,0,0,0-1.7-1.358c-1.023-.6-1.976-1.236-2.964-1.693A4.507,4.507,0,0,0,101.648,301.754Z" transform="translate(11.41 10.669)"/><path class="e" d="M105.232,304.508a32.285,32.285,0,0,0,1.661,3.567,29.427,29.427,0,0,1,1.973,4.514" transform="translate(13.048 11.937)"/><path class="e" d="M140.693,315.737a10.339,10.339,0,0,0,1.875-1.731c-.36-.685-1.37-1.73-1.443-2.668a3.757,3.757,0,0,1,.831-3.029c.829-.756,3.424-2.451,4.145-3.57a7.954,7.954,0,0,0,1.443-3.749,11.415,11.415,0,0,1,2.6,4.724,8.181,8.181,0,0,1-.721,4.867A18.9,18.9,0,0,1,147.473,313a5.907,5.907,0,0,1-3.318,1.3,5.253,5.253,0,0,0-1.947.721l-.973.721Z" transform="translate(29.257 10.329)"/><path class="e" d="M132.756,307.605a27.532,27.532,0,0,1,2.987-2.643,11.7,11.7,0,0,1,3.905-1.033c1.351-.144,3.89-.488,4.673-1.148A27.156,27.156,0,0,0,148.7,297.7c1.2-1.982.831-1.9.831-1.9a6.29,6.29,0,0,1-2.786,1.695c-1.58.373-3.819.89-5.112,1.12a8.181,8.181,0,0,0-3.3,1.751,16.994,16.994,0,0,0-2.413,2.728C135.571,303.642,132.756,307.605,132.756,307.605Z" transform="translate(25.629 7.957)"/><path class="e" d="M135.771,301.808l1.92-2.241a5.179,5.179,0,0,0,1.572.261,8.783,8.783,0,0,0,3.464-2.037,3.228,3.228,0,0,1,2.184-1.135c.494-.029,1.833,0,1.833,0a4.463,4.463,0,0,0-1.485-1.514,1.829,1.829,0,0,0-1.193-.175,4.4,4.4,0,0,0,.379-1.833,2.859,2.859,0,0,0-1.864.436,2.038,2.038,0,0,0,.641-1.631,1.97,1.97,0,0,0-1.718.408,2.4,2.4,0,0,0,.321-1.456,2.525,2.525,0,0,0-1.689.874,2.529,2.529,0,0,0-1.426-2.1,5.71,5.71,0,0,1-.173,2.3,25.815,25.815,0,0,1-1.514,3.174,3.335,3.335,0,0,0-.67,2.5,2.129,2.129,0,0,0,.554,1.339c.2.233-.989,1.98-.989,1.98l-.291.407Z" transform="translate(26.941 5.154)"/><path class="e" d="M128.283,308.317a27.7,27.7,0,0,0,4.5-2.579c1.39-1.145,4.5-4.992,5.074-7.2s1.123-4.951,1.123-4.951a24.339,24.339,0,0,1-3.825,3.227,13.12,13.12,0,0,0-3.723,3.606,43.127,43.127,0,0,0-2.127,5.278C129.019,306.6,128.283,308.317,128.283,308.317Z" transform="translate(23.585 6.945)"/><path class="e" d="M124.98,310.58s1.8-2.777,3.109-4.619a9.32,9.32,0,0,0,1.719-4.992c-.041-.941-.491-4.827-.491-4.827s-1.392,3.6-2.618,4.787a6.73,6.73,0,0,0-1.719,3.928C124.9,305.717,124.98,310.58,124.98,310.58Z" transform="translate(22.058 8.113)"/><path class="e" d="M129.484,302.863c.723-1.443,2.547-2.659,3.63-3.647a19.07,19.07,0,0,0,3.439-3.952,13.315,13.315,0,0,0,1.91-5.2,33.514,33.514,0,0,0,0-3.99s-.96,2.926-1.721,3.5-1.447,1.6-2.736,2.583a13.963,13.963,0,0,0-3.077,3.153,11.193,11.193,0,0,0-1.444,3.914A27.222,27.222,0,0,0,129.484,302.863Z" transform="translate(24.103 3.509)"/><path class="e" d="M127.99,298.957c.586-.806,1.612-3.124,2.32-4.15s2.881-2.71,3.759-4.247a14.959,14.959,0,0,0,1.415-6.518c-.073-1.88-.374.415-1.712,1.44s-3.028,2.27-3.7,3.466a11.508,11.508,0,0,0-1.4,4.517,31.75,31.75,0,0,1-.561,4.418A2.59,2.59,0,0,0,127.99,298.957Z" transform="translate(23.445 2.254)"/><path class="e" d="M126.744,291.569c.624-.935,2.152-2.339,2.808-3.493a11.7,11.7,0,0,0,1.746-4.96c.032-1.778.157-2.745.157-2.745a27.131,27.131,0,0,0-2.356,1.9,10.647,10.647,0,0,0-2.355,3.587,9.4,9.4,0,0,0-.249,3.213C126.62,290.166,126.744,291.569,126.744,291.569Z" transform="translate(22.745 0.904)"/><path class="e" d="M119.579,308.654c.2-1.023.358-2.866.921-3.736a5.664,5.664,0,0,1,2.713-2.047c.973-.307,3.481-.922,4.811-2.713a13.412,13.412,0,0,0,2.56-4.449,14.009,14.009,0,0,0,0-5.278c-1.434,1.228-1.4,2.355-2.978,3.379a24.991,24.991,0,0,0-4.188,2.968,9.591,9.591,0,0,0-2.3,3.634,5.293,5.293,0,0,0-.511,2.458c.051.87-.768,1.945-1.024,2.661a16.821,16.821,0,0,0-.46,2.509Z" transform="translate(19.396 5.503)"/><path class="e" d="M125.491,293.152a6.282,6.282,0,0,0,1.123-3.691,7.974,7.974,0,0,0-1.123-3.654,17.441,17.441,0,0,1-1.441-2.53,12.366,12.366,0,0,1-.7-2.863c-.071-.756-.739,1.808-1.02,2.687a13.913,13.913,0,0,0-.491,3.163,5.811,5.811,0,0,0,.632,2.706,13.466,13.466,0,0,1,1.269,2.178c.5,1.827.136,1.9.382,2s.562-.8.562-1.54a6.976,6.976,0,0,0-.447-2.642c-.361-.809-.922-1.728-1.064-2.251s.423.6.914,1.161a2.938,2.938,0,0,1,.809,1.687,9.223,9.223,0,0,1,.21,2.776,4.308,4.308,0,0,1-.561,1.3C124.3,293.959,125.491,293.152,125.491,293.152Z" transform="translate(20.638 0.861)"/><path class="e" d="M123.291,292.074a10.867,10.867,0,0,1-1.664-3.615,22.221,22.221,0,0,1-.452-5.5c.1-1.581.6-5.052-.431-3.121a31.071,31.071,0,0,0-2.464,5.093,4.852,4.852,0,0,0,.185,3.347,6.445,6.445,0,0,0,2.215,2.9A5.886,5.886,0,0,0,123.291,292.074Z" transform="translate(18.915 0.399)"/><path class="e" d="M115.668,279.318a3.789,3.789,0,0,1,.471,2.623c-.254.689-.943,2.519-1.234,3.293a7.492,7.492,0,0,0,0,4,6.545,6.545,0,0,0,2.578,2.894,7.746,7.746,0,0,0,2.795.7,25.486,25.486,0,0,1-2.142-1.85,4.866,4.866,0,0,1-1.451-2.831,13.631,13.631,0,0,1,.581-3.267,5.268,5.268,0,0,0,.188-2.977,5.107,5.107,0,0,0-1.132-2.286C115.7,278.783,115.668,279.318,115.668,279.318Z" transform="translate(17.344 0.346)"/><path class="e" d="M109.112,291.464a3.575,3.575,0,0,1,1.448-.637,1.44,1.44,0,0,1,1.362.637c.511.6,1.322,1.357,1.833,2.043a15.382,15.382,0,0,0,2.13,2.554,8.922,8.922,0,0,0,3.408,1.966,9.712,9.712,0,0,0,5.069,0,15.345,15.345,0,0,0,4.389-1.966,28.1,28.1,0,0,0,4.132-3.445,14.51,14.51,0,0,0,1.737-2.508c.223-.475-1.225.5-2.8,1.355s-3.109.471-3.92,1.024a17.964,17.964,0,0,1-2.9,2.088,12.227,12.227,0,0,1-4.048.809,5.026,5.026,0,0,1-2.173-.724c-.09-.073-.125-.124-.114-.156.066-.194,1.192-.045,1.945-.015a8.08,8.08,0,0,0,3.89-.74,7.791,7.791,0,0,0,2.887-2.8l.721-1.278h0a8.5,8.5,0,0,1-2.726.937,10.334,10.334,0,0,1-3.72-.184,13.873,13.873,0,0,1-3.311-.924,9.939,9.939,0,0,0-3.152-1.236,8.848,8.848,0,0,0-2.6,0,3.455,3.455,0,0,0-2.3,1.107c-1,1.086-1.172,1.507-1.192,1.663A1.54,1.54,0,0,0,109.112,291.464Z" transform="translate(14.815 4.47)"/><path class="e" d="M109.158,292.82a7.077,7.077,0,0,1,2.678-3.6,8.328,8.328,0,0,0,2.863-3.9,8.717,8.717,0,0,0,.2-4.808,9.8,9.8,0,0,0-.908-2.119s-.1,2.454-.908,3.464-1.614,2.085-2.355,2.926a6.449,6.449,0,0,0-1.572,3.329,20.445,20.445,0,0,0-.176,3.261A6.476,6.476,0,0,0,109.158,292.82Z" transform="translate(14.754)"/><path class="e" d="M106.054,295.3a5.371,5.371,0,0,1,.3-3.172c.707-1.268,1.581-2.31,2.286-3.453a8.582,8.582,0,0,0,1.547-3.633c0-1.042.4-2.422-.27-3.6a25.008,25.008,0,0,0-1.512-2.295,6.357,6.357,0,0,1-.1,2.6,9.991,9.991,0,0,1-1.75,3.229,6.4,6.4,0,0,0-1.816,3.3,12.538,12.538,0,0,0,0,3.363C104.945,292.474,106.054,295.3,106.054,295.3Z" transform="translate(12.771 0.346)"/><path class="e" d="M103.642,290.733a8.519,8.519,0,0,1,.64-2.924,7.114,7.114,0,0,0,1.244-3.329,6.838,6.838,0,0,0-1.378-3.981c-1.043-1.132-.943-.56-.943-.56a9.065,9.065,0,0,1-.268,2.32c-.3,1.077-.807,1.951-.976,2.707a6.14,6.14,0,0,0,0,2.707,11.378,11.378,0,0,0,.943,2.152Z" transform="translate(11.483 0.64)"/><path class="e" d="M109.479,302.677a7.574,7.574,0,0,0,1.521-4.67,8.757,8.757,0,0,0-.43-2.489,4.209,4.209,0,0,0-.227-.667c-.24-.52-.57-.813-1.158-1.99a7.3,7.3,0,0,1-.879-2.6c-.073-.879,0-2.381,0-2.381a22.7,22.7,0,0,0-1.172,2.455,15.183,15.183,0,0,0-1.037,3.322,10.649,10.649,0,0,0-.136,3.49,11.358,11.358,0,0,0,.937,3.188,9,9,0,0,1,.382,3.918c-.22,1.173.074.989.074.989a8.129,8.129,0,0,0,1.01-2.417,11.277,11.277,0,0,0,0-3.847,8.3,8.3,0,0,1,0-3.15,9.921,9.921,0,0,1,.491-1.648s-.073.917-.073,1.612a19,19,0,0,0,.255,2.492,13.366,13.366,0,0,1,.294,2.124c0,.476.047.813.035,1.292-.009.411-.246.812-.083.944A.248.248,0,0,0,109.479,302.677Z" transform="translate(13.341 4.336)"/><path class="e" d="M100.539,284.462a14.126,14.126,0,0,0,2.866,5.406,14.6,14.6,0,0,1,3.714,6.767,39.666,39.666,0,0,1,.235,5.636,8.942,8.942,0,0,0-2.162-3.05c-1.833-1.928-3.759-3.431-4.135-4.654a9.083,9.083,0,0,1-.893-3.383c-.048-1.74-.095-3.431,0-4.654A9.436,9.436,0,0,1,100.539,284.462Z" transform="translate(10.706 2.774)"/><path class="e" d="M96.381,283.844a28.565,28.565,0,0,0,2.068,2.4,6.392,6.392,0,0,1,1.74,3.475,21.7,21.7,0,0,0,.469,4.562c.424,1.41-.657-.277-1.081-.844a7.709,7.709,0,0,0-1.692-1.883,3.837,3.837,0,0,1-1.5-2.221,15.789,15.789,0,0,1-.329-3.278A21.834,21.834,0,0,1,96.381,283.844Z" transform="translate(8.848 2.492)"/><path class="e" d="M98.132,292.687a6.632,6.632,0,0,0,2.3,2.162,14.019,14.019,0,0,1,3.987,2.914,27.911,27.911,0,0,1,3.52,4.606c.86,1.74,1.141,1.833,1.141,1.833a8.443,8.443,0,0,0,0-3.007c-.328-1.176-.8-2.684-.8-2.684l.564.475a21.415,21.415,0,0,1,.847,4.068c-.047,1.055-.42,1.665,0,2.277s1.6,1.856,1.6,2.291a.867.867,0,0,1-.329.67,9.953,9.953,0,0,0-1.693-2.423,7.734,7.734,0,0,0-2.82-1.995,20.857,20.857,0,0,1-3.854-1.41c-1.364-.752-2.35-.94-3.244-2.633a8.172,8.172,0,0,1-1.223-3.854A22.607,22.607,0,0,1,98.132,292.687Z" transform="translate(9.774 6.534)"/><path class="e" d="M93.121,286.268s-.235,1.976.612,2.774a26.847,26.847,0,0,1,2.773,2.583A12.209,12.209,0,0,1,99,296.255a21.52,21.52,0,0,1,.517,3.55c-.047.8-.611-.611-1.457-1.974A39.888,39.888,0,0,0,95,294.138a8.671,8.671,0,0,1-1.552-2.935c-.093-.564,0,2.436.564,2.935s1.41,1.813,2.068,2.423a6.679,6.679,0,0,1,1.732,2.868,7.281,7.281,0,0,1,.383,2.017c0,.334-.469-.747-.986-1.782A5.99,5.99,0,0,0,95.19,297.3a7.92,7.92,0,0,1-2.1-2.527,8.173,8.173,0,0,1-.816-2.442,8.84,8.84,0,0,1,0-2.758A15.23,15.23,0,0,1,93.121,286.268Z" transform="translate(7.077 3.6)"/><path class="e" d="M91.668,288.816a8.3,8.3,0,0,0,0,2.821,8.979,8.979,0,0,0,1.926,3.453,9.135,9.135,0,0,1,1.693,4.4,7.879,7.879,0,0,1-1.081,4.042c-.705.847-.283,1.3-.283,1.3l1.645,1.478-.469.376a12.066,12.066,0,0,0-1.881-1.5,7.783,7.783,0,0,0-2.632-.8,5.3,5.3,0,0,1-2.632-2.116,8.408,8.408,0,0,1-1.129-3.949,12.924,12.924,0,0,1,.471-4.37,8.221,8.221,0,0,1,2.021-3.06C89.976,290.273,91.668,288.816,91.668,288.816Z" transform="translate(4.63 4.764)"/><path class="e" d="M83.114,297.148a7.531,7.531,0,0,1,3.807.611,9.221,9.221,0,0,1,2.961,3.573c.281.705.705,2.585,1.362,3.054s-.94,0-.94,0-2.519-.892-3.045-1.833-.95-2.773-1.7-3.29-2.162-1.55-2.162-1.55Z" transform="translate(2.938 8.559)"/><path class="e" d="M80.664,302.625a6.486,6.486,0,0,1,3.1-1.2c1.457,0,3.526.277,4.559,1.2a40.572,40.572,0,0,1,4.09,4.161c.845,1.129,1.738,2.76,2.021,2.7a11.61,11.61,0,0,1-2.726-.439A7.364,7.364,0,0,1,88,306.693c-.8-1.128-2.021-2.492-3.2-2.726a25.388,25.388,0,0,0-4.137-.8C79.724,303.215,80.664,302.625,80.664,302.625Z" transform="translate(1.627 10.53)"/><path class="e" d="M90.759,310.178s.093-3.244.8-4a22.264,22.264,0,0,1,2.726-3.1c1.128-.845,2.429-2.068,2.719-3.2a11.486,11.486,0,0,0,.29-3.2,4.382,4.382,0,0,1,1.785,3.013,6.5,6.5,0,0,1-.986,4.345,14.153,14.153,0,0,1-2.492,2.423c-1.081.845-2.773,1.738-3.242,2.49s-1.223,1.974-1.223,1.974Z" transform="translate(6.432 8.361)"/><path class="e" d="M90.933,311.683a13.288,13.288,0,0,0,4.565-1.565,15.866,15.866,0,0,0,4.176-3.6c1.709-1.942,1.684-2.608,3.579-4.46,1.574-1.539,2.451-1.868,3.244-1.974a12.961,12.961,0,0,1,1.974,0,5.59,5.59,0,0,0-1.7,1.457,9.112,9.112,0,0,0-.933,3.981,11.346,11.346,0,0,1-1.314,5.329,7.951,7.951,0,0,1-1.88,2.412c-.9.762-1.92,1.237-7.271,2.164-2.824.49-2.694.383-4.529.752-2.467.5-5.311,1.211-5.311,1.211h0a25.257,25.257,0,0,1,3.79-1.992,26.519,26.519,0,0,1,3.59-1.211,30.851,30.851,0,0,1,5.311-1.081,8.343,8.343,0,0,0,3.666-2.254,13.535,13.535,0,0,0,1.55-2.493,8.819,8.819,0,0,1-2.99,2.379,9.171,9.171,0,0,1-2.6.769A25.922,25.922,0,0,1,90.933,311.683Z" transform="translate(4.043 9.897)"/><path class="e" d="M87.876,307.073s-1.087-1.913-2-2.174-2.785-.653-4.089.3-2.132,2.522-3.131,3.088-.392.661.522.484a9.63,9.63,0,0,0,3.392-1.005,4,4,0,0,1,2.305-1.045C85.571,306.768,87.572,306.464,87.876,307.073Z" transform="translate(0.664 11.976)"/><path class="e" d="M93.021,309.639a12.631,12.631,0,0,0-4.481-2.126c-2.044-.31-4.553-.157-5.393.342-1.827,1.087-2.175,2.132-3.437,2.958s-3.261,2.175-3,2.393a12.9,12.9,0,0,0,5.7.609,10.259,10.259,0,0,0,4.567-2.088,7.5,7.5,0,0,1,3.223-1.871A18.382,18.382,0,0,1,93.021,309.639Z" transform="translate(0 13.238)"/></g></g></svg>