<svg xmlns="http://www.w3.org/2000/svg" width="59.302" height="76.601" viewBox="0 0 59.302 76.601"><defs><style>.a{fill:#f0bc5e;}</style></defs><g transform="translate(-8 -0.997)"><path class="a" d="M35.3,41.593a17.3,17.3,0,1,1,17.3-17.3A17.315,17.315,0,0,1,35.3,41.593Z" transform="translate(2.355 1.413)"/><path d="M41.665,17.078A12.3,12.3,0,0,0,39.8,14.333l-1.84,1.648a9.949,9.949,0,0,1,1.49,2.2Z" transform="translate(7.055 3.14)"/><path d="M44.355,21.523a12.365,12.365,0,0,0-.306-2.744l-2.409.546A9.895,9.895,0,0,1,32,31.407v2.471A12.369,12.369,0,0,0,44.355,21.523Z" transform="translate(5.651 4.187)"/><path d="M35,37h2.471v2.471H35Z" transform="translate(6.357 8.477)"/><path d="M27,37h2.471v2.471H27Z" transform="translate(4.474 8.477)"/><path d="M31,37h2.471v2.471H31Z" transform="translate(5.415 8.477)"/><path d="M19.813,52.016q-1.275-.246-2.354-.513l-.589,2.4q1.132.278,2.473.54Z" transform="translate(2.088 11.892)"/><path d="M23.662,52.573c-.841-.1-1.646-.208-2.408-.324l-.371,2.444q1.184.18,2.491.335Z" transform="translate(3.033 12.067)"/><path d="M27.564,52.89q-1.256-.076-2.43-.179l-.215,2.461q1.206.106,2.5.183Z" transform="translate(3.984 12.176)"/><path d="M48.7,50.932c-.741-.206-1.564-.411-2.47-.608l-.525,2.414c.852.185,1.631.379,2.329.574Z" transform="translate(8.878 11.614)"/><path d="M44.662,50.008q-1.175-.2-2.487-.378l-.329,2.449c.843.112,1.643.236,2.4.364Z" transform="translate(7.969 11.451)"/><path d="M40.6,49.434q-1.2-.122-2.5-.219l-.18,2.465q1.256.091,2.425.211Z" transform="translate(7.046 11.353)"/><path d="M46.062,55.7A64.894,64.894,0,0,1,55.69,42.576a24.71,24.71,0,1,0-35.974.111,62.073,62.073,0,0,1,9.571,13.007C18.666,56.533,8,59.1,8,64.009v4.942C8,74.629,22.917,77.6,37.651,77.6S67.3,74.629,67.3,68.951V64.009C67.3,59.108,56.663,56.542,46.062,55.7ZM15.529,23.4A22.246,22.246,0,0,1,35.106,3.612a23.258,23.258,0,0,1,2.576-.143,21.984,21.984,0,0,1,14.8,5.667,22.217,22.217,0,0,1,1.407,31.75A62.794,62.794,0,0,0,40.464,61.975l-.647,1.759a2.308,2.308,0,0,1-4.331,0l-.8-2.178A60.412,60.412,0,0,0,21.51,40.986,22.269,22.269,0,0,1,15.529,23.4ZM30.514,58.086c.686,1.428,1.313,2.867,1.851,4.324l.8,2.178a4.779,4.779,0,0,0,8.969,0l.647-1.759a51.564,51.564,0,0,1,2.038-4.74c13.051.9,20.009,3.982,20.009,5.92,0,2.519-10.588,6.177-27.18,6.177s-27.18-3.658-27.18-6.177C10.471,62.067,17.44,58.982,30.514,58.086Zm7.137,17.042c-16.592,0-27.18-3.658-27.18-6.177V67.692c4.836,3.271,16.057,4.965,27.18,4.965S60,70.963,64.831,67.692v1.259c0,2.519-10.588,6.177-27.18,6.177Z" transform="translate(0 0)"/></g></svg>