<svg xmlns="http://www.w3.org/2000/svg" width="72" height="72" viewBox="0 0 72 72"><defs><style>.a{fill:rgba(44,46,64,0.6);}.b{fill:#f3f3f3;}</style></defs><path class="a" d="M0,0H72V72H0Z"/><g transform="translate(15.994 16)"><path class="b" d="M27.033,10.536a1.905,1.905,0,0,0-2.684,0l-9.381,9.41a1.9,1.9,0,0,0-.059,2.616l9.243,9.273a1.895,1.895,0,1,0,2.684-2.675l-7.857-7.975,8.053-7.975A1.876,1.876,0,0,0,27.033,10.536Z" transform="translate(-2.126 -0.742)"/><path class="b" d="M44.281,23.828A20.453,20.453,0,1,1,23.828,3.375,20.45,20.45,0,0,1,44.281,23.828Zm-3.147,0A17.3,17.3,0,0,0,11.6,11.6,17.3,17.3,0,1,0,36.06,36.06,17.157,17.157,0,0,0,41.134,23.828Z" transform="translate(-3.375 -3.375)"/></g></svg>