<svg xmlns="http://www.w3.org/2000/svg" width="72" height="72" viewBox="0 0 72 72"><defs><style>.a{fill:rgba(44,46,64,0.6);}.b{fill:#f3f3f3;}</style></defs><path class="a" d="M72,0H0V72H72Z"/><g transform="translate(15.1 16)"><path class="b" d="M14.975,10.536a1.905,1.905,0,0,1,2.684,0l9.381,9.41a1.9,1.9,0,0,1,.059,2.616l-9.243,9.273a1.895,1.895,0,1,1-2.684-2.675l7.857-7.975L14.975,13.21A1.876,1.876,0,0,1,14.975,10.536Z" transform="translate(1.024 -0.742)"/><path class="b" d="M3.375,23.828A20.453,20.453,0,1,0,23.828,3.375,20.45,20.45,0,0,0,3.375,23.828Zm3.147,0A17.3,17.3,0,0,1,36.06,11.6,17.3,17.3,0,1,1,11.6,36.06,17.157,17.157,0,0,1,6.522,23.828Z" transform="translate(-3.375 -3.375)"/></g></svg>