<svg xmlns="http://www.w3.org/2000/svg" width="67.11" height="67" viewBox="0 0 67.11 67">
  <g id="spa" transform="translate(0 -0.4)">
    <g id="Group_30" data-name="Group 30" transform="translate(0 0.4)">
      <path id="Path_36" data-name="Path 36" d="M37.3,456.664a175.689,175.689,0,0,1-34.841,0L.22,456.44,0,458.626l2.241.224.066.005v1.973H4.5v-1.78c5.106.444,10.266.682,15.377.682s10.271-.238,15.377-.682v1.78h2.2v-1.973l.066-.005,2.241-.224-.219-2.186Z" transform="translate(0 -393.828)" fill="#333"/>
      <path id="Path_37" data-name="Path 37" d="M218.849,42.664V34.449h2.2v-2.2H203.472v2.2h2.2v8.215a14.3,14.3,0,0,0-4.507,3.694,37.649,37.649,0,0,0-1.823-9.107,5.1,5.1,0,0,1,.1-3.5l.123-.305a23.794,23.794,0,0,0,1.71-8.881v-1.1h-6.59V17.772a3.29,3.29,0,0,0,1.807-1.571,3.265,3.265,0,0,0,4.108-4.109,3.266,3.266,0,0,0,0-5.81,3.265,3.265,0,0,0-4.108-4.108,3.267,3.267,0,0,0-5.811,0,3.264,3.264,0,0,0-4.108,4.108,3.267,3.267,0,0,0,0,5.811,3.252,3.252,0,0,0,4.108,4.108,3.29,3.29,0,0,0,1.807,1.571v5.7H185.9v1.1a23.782,23.782,0,0,0,1.711,8.882l.121.3a5.027,5.027,0,0,1,.366,1.891,5.1,5.1,0,0,1-.26,1.609A37.641,37.641,0,0,0,185.9,49.178v1.746h2.2V49.178a35.509,35.509,0,0,1,1.822-11.233,7.273,7.273,0,0,0-.148-5.012l-.121-.3a21.616,21.616,0,0,1-1.526-6.968H199.05a21.574,21.574,0,0,1-1.525,6.967l-.123.3a7.293,7.293,0,0,0-.146,5.013,35.5,35.5,0,0,1,1.822,11.232v.648h.016a14.221,14.221,0,0,0,5.275,17.39l.277.183h15.223l.277-.183a14.265,14.265,0,0,0-1.3-24.553ZM194.685,14.679a1.1,1.1,0,1,1-2.2,0v-2.4a3.086,3.086,0,0,0,2.2,0v2.4Zm-6.59-4.393a1.1,1.1,0,0,1,0-2.2h2.4a3.086,3.086,0,0,0,0,2.2h-2.4Zm8.585-2.2h2.4a1.1,1.1,0,0,1,0,2.2h-2.4a3.086,3.086,0,0,0,0-2.2Zm-3.093,2.2a1.1,1.1,0,1,1,1.1-1.1A1.1,1.1,0,0,1,193.587,10.285Zm4.66,3.561a1.081,1.081,0,0,1-1.365.125V12.482h1.489A1.082,1.082,0,0,1,198.247,13.846Zm0-9.32a1.083,1.083,0,0,1,.125,1.365h-1.489V4.4A1.084,1.084,0,0,1,198.246,4.527ZM192.489,3.7a1.1,1.1,0,1,1,2.2,0v2.4a3.086,3.086,0,0,0-2.2,0V3.7Zm-3.562.833a1.086,1.086,0,0,1,1.365-.125V5.892H188.8A1.082,1.082,0,0,1,188.927,4.528Zm0,9.32a1.083,1.083,0,0,1-.125-1.365h1.489v1.489A1.084,1.084,0,0,1,188.928,13.847ZM219.2,65.2H205.319a12.06,12.06,0,0,1-5.141-9.885,11.863,11.863,0,0,1,.212-2.2h18.46v-2.2H201.018a12.135,12.135,0,0,1,6.208-6.579l.639-.294v-9.6h8.787v9.6l.639.294a12.128,12.128,0,0,1,6.208,6.579h-2.454v2.2h3.083a11.869,11.869,0,0,1,.212,2.2A12.06,12.06,0,0,1,219.2,65.2Z" transform="translate(-159.428 -0.4)" fill="#333"/>
    </g>
    <g id="Group_31" data-name="Group 31" transform="translate(7.798 42.138)">
      <ellipse id="Ellipse_14" data-name="Ellipse 14" cx="12.082" cy="4.393" rx="12.082" ry="4.393" transform="translate(0 13.18)" fill="#f9ba48"/>
      <ellipse id="Ellipse_15" data-name="Ellipse 15" cx="9.885" cy="3.295" rx="9.885" ry="3.295" transform="translate(2.197 6.59)" fill="#f9ba48"/>
      <ellipse id="Ellipse_16" data-name="Ellipse 16" cx="6.59" cy="3.295" rx="6.59" ry="3.295" transform="translate(5.492)" fill="#f9ba48"/>
    </g>
  </g>
</svg>
