<?xml version="1.0" encoding="iso-8859-1"?>
<!-- Generator: Adobe Illustrator 19.0.0, SVG Export Plug-In . SVG Version: 6.00 Build 0)  -->
<svg version="1.1" id="Layer_1" xmlns="http://www.w3.org/2000/svg" xmlns:xlink="http://www.w3.org/1999/xlink" x="0px" y="0px"
	 viewBox="0 0 480 480" style="enable-background:new 0 0 480 480;" xml:space="preserve">
<g>
	<path style="fill:#F9BA48;" d="M176,288H76c-15.44,0-28-12.56-28-28s12.56-28,28-28h56c6.616,0,12-5.384,12-12s-5.384-12-12-12H0
		v-16h132c15.44,0,28,12.56,28,28s-12.56,28-28,28H76c-6.616,0-12,5.384-12,12s5.384,12,12,12h100V288z"/>
	<path style="fill:#F9BA48;" d="M480,368h-76c-15.44,0-28-12.56-28-28s12.56-28,28-28h24c6.616,0,12-5.384,12-12s-5.384-12-12-12
		h-68v-16h68c15.44,0,28,12.56,28,28s-12.56,28-28,28h-24c-6.616,0-12,5.384-12,12s5.384,12,12,12h76V368z"/>
	<path style="fill:#F9BA48;" d="M296,448H164c-15.44,0-28-12.56-28-28s12.56-28,28-28h36c6.616,0,12-5.384,12-12s-5.384-12-12-12H48
		v-16h152c15.44,0,28,12.56,28,28s-12.56,28-28,28h-36c-6.616,0-12,5.384-12,12s5.384,12,12,12h132V448z"/>
</g>
<g>
	<path style="fill:#333333;" d="M464,112V96h-24v-8c0-30.872-25.128-56-56-56s-56,25.128-56,56v8h-24v-8c0-30.872-25.128-56-56-56
		s-56,25.128-56,56v8H0v16h192v184h16v-24h120v24h16V112H464z M344,88c0-22.056,17.944-40,40-40s40,17.944,40,40v8h-80V88z M208,88
		c0-22.056,17.944-40,40-40s40,17.944,40,40v8h-80V88z M208,192h120v24H208V192z M208,176v-24h120v24H208z M208,256v-24h120v24H208z
		 M328,136H208v-24h120V136z"/>
	<path style="fill:#333333;" d="M144,204c0,6.616-5.384,12-12,12H76c-15.44,0-28,12.56-28,28s12.56,28,28,28h100v-16H76
		c-6.616,0-12-5.384-12-12s5.384-12,12-12h56c15.44,0,28-12.56,28-28s-12.56-28-28-28H0v16h132C138.616,192,144,197.384,144,204z"/>
	<path style="fill:#333333;" d="M404,336c-6.616,0-12-5.384-12-12s5.384-12,12-12h24c15.44,0,28-12.56,28-28s-12.56-28-28-28h-68v16
		h68c6.616,0,12,5.384,12,12s-5.384,12-12,12h-24c-15.44,0-28,12.56-28,28s12.56,28,28,28h76v-16H404z"/>
	<path style="fill:#333333;" d="M152,404c0-6.616,5.384-12,12-12h36c15.44,0,28-12.56,28-28s-12.56-28-28-28H48v16h152
		c6.616,0,12,5.384,12,12s-5.384,12-12,12h-36c-15.44,0-28,12.56-28,28s12.56,28,28,28h132v-16H164C157.384,416,152,410.616,152,404
		z"/>
</g>
<g>
</g>
<g>
</g>
<g>
</g>
<g>
</g>
<g>
</g>
<g>
</g>
<g>
</g>
<g>
</g>
<g>
</g>
<g>
</g>
<g>
</g>
<g>
</g>
<g>
</g>
<g>
</g>
<g>
</g>
</svg>
