<svg xmlns="http://www.w3.org/2000/svg" width="78.085" height="78.085" viewBox="0 0 78.085 78.085"><defs><style>.a{fill:#f0bc5e;}.b{fill:#333;}</style></defs><g transform="translate(12.594 27.708)"><path class="a" d="M80,304v7.557h22.67V304Zm0,0" transform="translate(-80 -283.849)"/><path class="a" d="M80,368h8.816v7.557H80Zm0,0" transform="translate(-80 -337.774)"/><path class="a" d="M103.557,188.594H96V176h7.557Zm0,0" transform="translate(-93.481 -176)"/><path class="a" d="M167.557,188.594H160V176h7.557Zm0,0" transform="translate(-147.406 -176)"/><path class="a" d="M175.113,407.557H160V400h15.113Zm0,0" transform="translate(-147.406 -364.736)"/><path class="a" d="M348.594,407.557H336V400h12.594Zm0,0" transform="translate(-295.698 -364.736)"/></g><path class="b" d="M480,480h2.519v2.519H480Zm0,0" transform="translate(-404.434 -404.434)"/><path class="b" d="M0,480H2.519v2.519H0Zm0,0" transform="translate(0 -404.434)"/><path class="b" d="M97.491,57.934H94.972V52.9H91.194V17.632H86.156V12.594H81.118V7.557H76.08V0H73.561V7.557H68.524v5.038H63.486v5.038H60.967V15.113H40.816V22.67H37.038V42.821H34.519V75.566H32v2.519h68.01V75.566H97.491Zm-2.519,2.519V75.566H77.34V60.453Zm-2.519-2.519H79.859V55.415H92.453ZM71.043,10.075H78.6v2.519H71.043ZM66,15.113H83.637v2.519H66Zm22.67,5.038V52.9H77.34v5.038H74.821V75.566H72.3V57.934H69.783V52.9H67.264V42.821H64.745V22.67H60.967V20.151ZM67.264,55.415v2.519H52.151V55.415Zm2.519,5.038V75.566H49.632V60.453ZM43.335,17.632H58.448V22.67H43.335Zm-3.778,7.557h22.67V42.821H39.557ZM37.038,45.34H64.745V52.9H49.632v5.038H47.113V75.566H37.038Zm0,0" transform="translate(-26.962)"/><path class="b" d="M200,400h2.519v7.557H200Zm0,0" transform="translate(-168.514 -337.028)"/><path class="b" d="M368,400h2.519v7.557H368Zm0,0" transform="translate(-310.066 -337.028)"/><path class="a" d="M335.557,151.557H328V144h7.557Zm0,0" transform="translate(-276.363 -121.33)"/><path class="a" d="M335.557,215.557H328V208h7.557Zm0,0" transform="translate(-276.363 -175.255)"/><path class="a" d="M335.557,279.557H328V272h7.557Zm0,0" transform="translate(-276.363 -229.179)"/><path class="a" d="M271.557,151.557H264V144h7.557Zm0,0" transform="translate(-222.439 -121.33)"/><path class="a" d="M271.557,215.557H264V208h7.557Zm0,0" transform="translate(-222.439 -175.255)"/><path class="a" d="M271.557,279.557H264V272h7.557Zm0,0" transform="translate(-222.439 -229.179)"/></svg>